<svg width="50" height="16" viewBox="0 0 50 16" fill="none" xmlns="http://www.w3.org/2000/svg">
<g clip-path="url(#clip0_917_5080)">
<path d="M27.1121 7.46384C30.2704 6.03134 30.7375 1.35669 26.2451 1.35669H21.0426L19.12 5.12657H20.0248L17.7251 14.1366H23.7569C28.1574 14.1742 30.1365 8.99244 27.1121 7.46384ZM23.7569 10.8568H22.249L22.8144 8.82111H24.2469C25.9434 9.16032 24.8879 10.9321 23.7569 10.8568ZM24.6617 6.52134H23.38L23.7569 4.74953H25.1894C26.5736 5.08884 25.378 6.5968 24.6617 6.52134Z" fill="#005FAF"/>
<path d="M39.462 6.17135L41.4371 2.68479L38.7646 1.29077L38.416 1.721C36.9743 0.957833 29.4249 2.01156 28.9522 9.45868C29.2348 15.7059 36.235 14.5822 36.9217 14.1858L38.847 10.2057C36.9613 11.4478 33.1003 12.044 32.937 8.31307C33.2757 5.23642 36.9081 4.08746 39.462 6.17135ZM49.3177 1.35671H43.246L41.316 5.01374H42.3075L37.7317 14.1366H42.1608L43.0701 11.9362H45.7888L45.8566 14.1366H49.9337L49.3177 1.35671ZM44.3019 8.97354L45.7887 5.4244L45.8565 8.97354H44.3019Z" fill="#005FAF"/>
<path d="M11.401 13.5265L11.6369 13.4581L11.3782 13.1006L11.401 13.5265ZM7.52877 13.4656L7.48315 13.7852C7.60054 13.7737 7.74507 13.8749 7.80269 13.6482C7.79836 13.4716 7.66389 13.4618 7.52877 13.4656ZM9.40793 13.4581C9.38836 13.371 9.31572 13.3069 9.13401 13.3668L9.19487 13.6938C9.34415 13.6607 9.4209 13.5724 9.40793 13.4581ZM5.16285 13.1904L5.09021 13.481C5.20695 13.4858 5.3437 13.5805 5.4212 13.4083C5.42639 13.3005 5.43082 13.193 5.16285 13.1904ZM9.24816 13.9374L9.30145 14.2721C9.42609 14.2753 9.5398 14.2004 9.50683 14.0439C9.47505 13.8935 9.34869 13.9173 9.24816 13.9374Z" fill="#005FAF"/>
<path d="M14.1955 1.52897C10.1671 -0.523245 5.35599 -0.46617 1.51769 1.43947C-0.461567 4.92376 -0.524587 9.79882 1.51769 14.1166C5.74633 16.2565 10.4233 16.1156 14.2252 14.2061C16.0121 10.5403 16.3072 6.12904 14.1955 1.52897ZM7.39189 11.9331L7.15311 11.9358C7.09398 11.276 6.93626 10.7214 6.59792 10.297C5.0464 8.35141 1.87484 9.81623 2.68978 6.50965C3.11352 4.81923 7.94686 3.82225 7.39189 11.9331ZM2.69551 8.66726C3.03429 9.35681 5.15677 9.46978 5.89356 9.99761C7.0623 10.8348 6.89454 11.9361 6.89454 11.9361H6.61889C6.07624 10.2728 4.55327 11.5898 3.33339 11.1418C2.56753 10.8694 2.01147 9.68867 2.69551 8.66726ZM6.56257 14.0895L6.67672 13.1842L6.88211 13.1994L6.79076 14.196C6.69867 14.635 6.04414 14.5763 5.96155 14.1579L6.06803 13.1233L6.31146 13.1615L6.20499 14.0287C6.2185 14.3157 6.50636 14.2985 6.56257 14.0895ZM5.4696 14.3367L5.23547 14.2802C5.26292 14.0867 5.49241 13.693 5.03884 13.693L4.91258 14.2076L4.65423 14.1591L4.92869 12.9239C5.59954 12.997 5.65823 13.1837 5.67153 13.3841C5.64505 13.5395 5.60364 13.648 5.46971 13.6746C5.62645 13.8169 5.47155 14.115 5.4696 14.3367ZM3.98251 12.9532C3.91798 13.0388 3.7888 13.3379 3.7701 13.5763C3.75021 13.8289 3.99289 13.7757 4.05332 13.7462C4.10207 13.7225 4.13828 13.5196 4.13828 13.5196L3.96835 13.463L4.025 13.2932L4.40744 13.4206L4.22335 14.058L4.06759 14.0154L4.08175 13.9162C3.89106 14.0031 3.54202 13.938 3.50105 13.718C3.46008 13.5412 3.58418 13.0054 3.78426 12.7551C3.97873 12.5116 4.45252 12.7495 4.46409 12.8967C4.47554 13.0432 4.41771 13.2082 4.41771 13.2082L4.23935 13.1746C4.23935 13.1746 4.25027 13.1216 4.26584 13.0382C4.28227 12.9497 4.0517 12.8612 3.98251 12.9532ZM7.46032 13.9905L7.4147 14.5383L7.22456 14.5308L7.29298 13.2298C7.76785 13.2397 8.04004 13.3054 8.03096 13.6407C8.00264 14.0988 7.63165 13.9958 7.46032 13.9905ZM7.93367 11.936H7.61554C7.58733 10.8094 7.80396 8.74877 7.21202 7.23228C6.76352 6.08267 5.62851 5.56553 5.37696 4.63687C4.97874 3.16697 5.6565 1.57654 7.93367 1.45406C9.90785 1.65675 10.5144 3.1808 10.1777 4.59979C9.59869 6.01856 9.01962 5.81469 8.29872 7.22795C7.70991 8.74293 7.93411 10.7277 7.93367 11.936ZM11.4618 14.021L11.2412 14.0971L11.1727 12.7886L11.4314 12.7201L12.0704 13.8004L11.8954 13.9145L11.6824 13.6103L11.4389 13.7016L11.4618 14.021ZM8.88795 11.936H8.63349C8.8432 9.04268 12.479 9.67127 12.8113 8.66726C13.386 9.66262 13.1794 10.5019 12.5794 10.9321C11.0883 12.0016 9.65847 10.1406 8.88795 11.936ZM10.2371 13.3973L10.3513 13.9983C10.4223 14.1368 10.4705 14.1111 10.5795 14.0972C10.7058 14.0057 10.6794 13.9167 10.6556 13.8005L10.8762 13.7701C10.9337 14.2055 10.7267 14.2499 10.5719 14.2798C10.2399 14.3035 10.1748 14.2389 10.085 13.8081C10.0327 13.4394 9.94233 13.0501 10.2524 12.9789C10.7613 12.9012 10.7312 13.1303 10.7773 13.2908L10.5566 13.3289C10.5214 13.191 10.4707 13.1363 10.3588 13.1465C10.2569 13.1933 10.2151 13.2691 10.2371 13.3973ZM9.77305 14.021C9.78364 14.2105 9.71933 14.3363 9.59804 14.3786L9.08069 14.485L8.87531 13.2298C8.98146 13.2125 9.50194 13.0218 9.62842 13.3669C9.69079 13.5776 9.62615 13.6531 9.55232 13.7472C9.6923 13.7921 9.73954 13.9011 9.77305 14.021ZM8.44454 7.72185C9.59707 4.47678 12.2343 5.05023 12.8192 6.50976C13.6205 9.43843 11.0403 8.63527 9.38747 9.83622C8.76278 10.3795 8.43405 11.0028 8.42919 11.9477H8.14598C8.129 10.0445 8.0982 8.69688 8.44454 7.72185Z" fill="#005FAF"/>
</g>
<defs>
<clipPath id="clip0_917_5080">
<rect width="50" height="15.68" fill="white"/>
</clipPath>
</defs>
</svg>
