<svg width="50" height="16" viewBox="0 0 50 16" fill="none" xmlns="http://www.w3.org/2000/svg">
<g clip-path="url(#clip0_917_5088)">
<path fill-rule="evenodd" clip-rule="evenodd" d="M30.1123 0.461182H33.1904L40.6914 11.0703V2.07632C40.6914 1.16627 39.5049 0.493977 39.5049 0.493977H43.3516C43.3516 0.493977 42.3418 1.10068 42.3418 2.06095V15.7025C42.3418 15.7025 40.5625 14.9452 39.2158 13.0247C37.8691 11.1041 32.8213 4.18339 32.8213 4.18339V13.3454C32.8213 14.0023 33.8789 14.8099 33.8789 14.8099H30.0801C30.0801 14.8099 31.1377 14.2032 31.1377 13.3956V2.21263C31.1387 1.00025 30.1123 0.461182 30.1123 0.461182ZM46.6641 11.0693V2.06403C46.6641 1.15397 45.4727 0.478604 45.4727 0.478604H50C50 0.478604 48.9853 1.08531 48.9853 2.0466V13.2501C48.9853 14.11 49.9521 14.8181 49.9521 14.8181H45.6016C45.6016 14.8181 46.665 14.1264 46.665 13.4192L46.6641 11.0693ZM20.8467 1.91235V6.25766H22.8135C23.7256 6.25766 25.0215 5.75344 25.0215 3.98354C25.0215 2.2157 23.1025 1.91235 22.4297 1.91235H20.8467ZM20.8467 7.67296V13.3311H23.4385C24.4463 13.3311 26.3184 12.421 26.3184 10.6532C26.3184 8.88534 24.7832 7.67193 23.3428 7.67193H20.8467V7.67296ZM17.4932 0.474505H24.1436C25.6309 0.474505 27.3242 1.81192 27.3242 3.62998C27.3242 6.10598 25.5156 6.44213 25.5156 6.44213C25.5156 6.44213 28.6846 7.2497 28.6846 10.4328C28.6846 13.616 25.2285 14.8171 24.0762 14.8171L17.4072 14.7997C17.4072 14.7997 18.5566 14.1725 18.5566 13.1118V2.19725C18.5576 1.08736 17.4932 0.474505 17.4932 0.474505Z" fill="#006677"/>
<path fill-rule="evenodd" clip-rule="evenodd" d="M0 14.8192H13.6689V0.474609H0V14.8192Z" fill="white"/>
<path fill-rule="evenodd" clip-rule="evenodd" d="M0 0.474609H4.27148C4.25879 0.506379 4.22754 0.59144 4.18945 0.74619C4.00293 1.50354 3.73437 3.69362 5.6084 6.90238C6.07129 7.69458 6.51953 8.32281 6.97949 8.93771L5.49414 10.1839C3.03125 7.01819 0 2.98648 0 2.98648V0.474609ZM0 5.94314V14.8192L4.14062 11.3102L1.28613 7.58288L0 5.94314ZM13.6689 5.04641C13.6387 5.00336 13.5117 4.80044 13.3262 4.6006C12.7588 3.98775 11.5303 3.00391 10.0518 3.84632C8.68555 4.62417 7.98633 6.40636 9.69043 8.76246C11.0908 10.7015 12.3564 10.891 13.0703 10.7804C13.1934 10.7619 13.5713 10.6656 13.6699 10.602V5.04538H13.6689V5.04641ZM13.6689 2.44742V0.474609H6.06543C6.05762 0.509454 6.00098 0.629359 5.97949 0.832276C5.93066 1.28628 5.91211 2.15022 6.21875 3.37695C6.63965 5.0587 7.81055 6.56009 7.81055 6.56009C7.81055 6.56009 7.69043 4.88653 9.16016 3.34108C10.0898 2.36338 11.1436 2.06003 11.998 2.07335C12.2998 2.07745 12.5771 2.1205 12.8154 2.17789C12.918 2.20146 13.5908 2.40438 13.6689 2.44742ZM13.6689 11.3225C13.6348 11.3522 13.5537 11.4076 13.415 11.507C13.042 11.7734 12.2412 12.167 10.9189 11.9579C9.72168 11.7683 8.57617 10.931 7.52441 9.6305L6.02051 10.8972C7.08203 12.2367 7.9043 13.3107 8.17969 13.5177C9.21777 14.2997 9.93164 14.0025 9.93164 14.0025L8.96973 14.8203H13.668V11.3225H13.6689ZM6.57812 14.8192H1.36719L1.79297 14.4575L4.68652 12.0235C4.68652 12.0235 5.83301 13.5864 6.28516 14.1593C6.37012 14.2689 6.43555 14.3704 6.48535 14.4626C6.57227 14.6276 6.56152 14.7373 6.57812 14.8192Z" fill="#E45300"/>
</g>
<defs>
<clipPath id="clip0_917_5088">
<rect width="50" height="15.68" fill="white"/>
</clipPath>
</defs>
</svg>
