<svg width="69" height="16" viewBox="0 0 69 16" fill="none" xmlns="http://www.w3.org/2000/svg">
<g clip-path="url(#clip0_917_5096)">
<path d="M18.6696 4.01575H22.3879C23.8939 4.01575 25.0165 4.6657 25.0165 6.03505C25.0165 7.03897 24.4956 7.5979 23.592 7.89456V7.91748C24.6694 8.13458 25.2253 8.70497 25.2253 9.67451C25.2253 11.5799 23.5222 11.979 22.0744 11.979H18.6696V4.01575ZM20.8238 7.16505H21.4262C22.1326 7.16505 22.863 6.9938 22.863 6.32025C22.863 5.59074 22.1675 5.52197 21.4488 5.52197H20.8238V7.16505ZM20.8238 10.4735H21.4611C22.249 10.4735 23.0711 10.3588 23.0711 9.5491C23.0711 8.68205 22.2257 8.60249 21.4837 8.60249H20.8238V10.4735Z" fill="#00529C"/>
<path d="M28.053 4.01575H30.6939L33.8099 11.979H31.4469L30.8445 10.2793H27.81L27.1727 11.979H24.9836L28.053 4.01575ZM29.3735 5.65883H29.3502L28.3077 8.77375H30.3352L29.3735 5.65883Z" fill="#00529C"/>
<path d="M34.1096 4.01575H36.8546L39.5885 9.4237H39.6111L39.5769 4.01575H41.5463V11.979H38.8698L36.0441 6.53667H36.0215L36.0899 11.979H34.1096V4.01575Z" fill="#00529C"/>
<path d="M42.2772 4.01575H44.4314V7.26753H44.4547L46.8868 4.01575H49.4811L46.4932 7.72331L49.7132 11.979H46.9676L44.4547 8.36247H44.4314V11.979H42.2772V4.01575Z" fill="#00529C"/>
<path d="M52.3848 4.01575H56.1032C57.6084 4.01575 58.7324 4.6657 58.7324 6.03505C58.7324 7.03897 58.2115 7.5979 57.3079 7.89456V7.91748C58.3853 8.13458 58.9405 8.70497 58.9405 9.67451C58.9405 11.5799 57.2381 11.979 55.7903 11.979H52.3848V4.01575ZM54.539 7.16505H55.1414C55.8485 7.16505 56.5775 6.9938 56.5775 6.32025C56.5775 5.59074 55.8834 5.52197 55.1647 5.52197H54.539V7.16505ZM54.539 10.4735H55.1763C55.9635 10.4735 56.7863 10.3588 56.7863 9.5491C56.7863 8.68205 55.9409 8.60249 55.1996 8.60249H54.539V10.4735Z" fill="#00529C"/>
<path d="M59.4184 4.01575H63.264C64.7002 4.01575 65.87 4.65491 65.87 6.02426C65.87 7.08482 65.3607 7.79208 64.3182 8.03142V8.05435C65.0123 8.23706 65.0589 8.84184 65.4648 9.81138L66.252 11.979H64.0054L63.542 10.5422C63.1018 9.17289 62.8232 8.82971 62.0244 8.82971H61.5726V11.979H59.4184V4.01575ZM61.5726 7.32416H62.1401C62.8355 7.32416 63.7158 7.30124 63.7158 6.3998C63.7158 5.65883 62.9629 5.52197 62.1401 5.52197H61.5726V7.32416Z" fill="#00529C"/>
<path d="M66.8458 4.01562H69V11.9789H66.8458V4.01562Z" fill="#00529C"/>
<path d="M13.7534 1.90735e-06H2.47865C1.10961 1.90735e-06 0 1.11989 0 2.50137V2.52767V13.4993C0 14.8673 1.08907 15.9798 2.44032 16H13.7472C15.1163 16 16.2266 14.8808 16.2266 13.4993L16.2314 2.50137C16.2314 1.11989 15.1225 1.90735e-06 13.7534 1.90735e-06ZM3.81826 14.7183L3.20356 14.725C2.4588 14.725 1.85505 14.1223 1.85505 13.3786L1.85163 13.2728V3.11626L1.85574 2.56879C1.8838 1.8494 2.43895 1.27091 3.16523 1.27091H4.41585C5.54942 1.27091 6.46805 2.24179 6.46805 3.38595C6.46805 3.9523 6.24284 4.46606 5.87799 4.83958L2.68743 8.02866L5.67811 11.0283C6.06349 11.42 6.29623 11.9338 6.29623 12.4967C6.29623 13.7238 5.1873 14.7183 3.81826 14.7183ZM13.0121 14.7082L7.43664 14.7062C7.43664 14.7062 8.08078 13.3341 8.08078 12.4846C8.08078 11.4483 7.72962 10.5233 7.17926 9.91109L5.27219 7.99629L7.21828 6.01542C7.79807 5.47942 8.18277 4.52741 8.18277 3.44259C8.18277 2.58363 7.94182 1.8231 7.5537 1.27091H8.90426C10.0378 1.27091 10.9571 2.24179 10.9571 3.38595C10.9571 3.9523 10.7319 4.46606 10.3671 4.83958L7.23745 7.99562L13.7377 14.5241C13.5316 14.6516 13.2722 14.7082 13.0121 14.7082ZM14.3736 12.67L9.71542 7.9936L11.934 5.7727C12.3851 5.21647 12.6719 4.37908 12.6719 3.44259C12.6719 2.57823 12.4275 1.79816 12.0359 1.24597L13.0285 1.27563C13.7733 1.27563 14.377 1.87839 14.377 2.62206L14.3736 12.67Z" fill="#00529C"/>
</g>
<defs>
<clipPath id="clip0_917_5096">
<rect width="69" height="16" fill="white"/>
</clipPath>
</defs>
</svg>
